<?xml version="1.0" encoding="utf-8"?>
<!-- Generator: Adobe Illustrator 15.0.0, SVG Export Plug-In . SVG Version: 6.00 Build 0)  -->
<!DOCTYPE svg PUBLIC "-//W3C//DTD SVG 1.1//EN" "http://www.w3.org/Graphics/SVG/1.1/DTD/svg11.dtd">
<svg version="1.1" id="Layer_1" xmlns="http://www.w3.org/2000/svg" xmlns:xlink="http://www.w3.org/1999/xlink" x="0px" y="0px"
	 width="240px" height="28px" viewBox="0 0 240 28" enable-background="new 0 0 240 28" xml:space="preserve">
<g>
	<g>
		<path fill="#010101" d="M11.13,22.141c-1.62,0-3.11-0.285-4.47-0.855c-1.36-0.569-2.535-1.339-3.525-2.31
			c-0.99-0.97-1.76-2.11-2.31-3.42C0.275,14.246,0,12.841,0,11.341v-0.06c0-1.5,0.28-2.905,0.84-4.215
			C1.4,5.756,2.175,4.605,3.165,3.615c0.99-0.989,2.17-1.77,3.54-2.34c1.37-0.57,2.865-0.854,4.485-0.854
			c1.62,0,3.11,0.284,4.47,0.854c1.36,0.57,2.535,1.34,3.525,2.311c0.99,0.971,1.76,2.11,2.31,3.42
			c0.55,1.311,0.825,2.715,0.825,4.215v0.061c0,1.5-0.28,2.904-0.84,4.215s-1.335,2.459-2.325,3.449
			c-0.99,0.99-2.17,1.771-3.54,2.34C14.245,21.855,12.75,22.141,11.13,22.141z M11.19,17.881c0.92,0,1.77-0.17,2.55-0.51
			c0.78-0.34,1.445-0.811,1.995-1.41c0.55-0.6,0.979-1.295,1.29-2.085c0.31-0.79,0.465-1.636,0.465-2.535v-0.06
			c0-0.9-0.155-1.75-0.465-2.551c-0.311-0.799-0.75-1.5-1.32-2.1c-0.57-0.6-1.245-1.074-2.025-1.426
			c-0.78-0.35-1.63-0.524-2.55-0.524c-0.94,0-1.795,0.171-2.565,0.511s-1.43,0.81-1.98,1.409c-0.55,0.601-0.98,1.296-1.29,2.085
			C4.985,9.477,4.83,10.32,4.83,11.221v0.061c0,0.899,0.155,1.75,0.465,2.549c0.31,0.801,0.75,1.5,1.32,2.101
			c0.57,0.601,1.24,1.075,2.01,1.425C9.395,17.706,10.25,17.881,11.19,17.881z"/>
		<path fill="#010101" d="M26.43,0.781h8.19c1.64,0,3.145,0.265,4.515,0.795c1.37,0.529,2.55,1.265,3.54,2.205
			c0.99,0.939,1.755,2.045,2.295,3.314c0.54,1.271,0.81,2.645,0.81,4.125v0.061c0,1.48-0.27,2.859-0.81,4.14s-1.305,2.39-2.295,3.33
			c-0.99,0.94-2.17,1.68-3.54,2.22c-1.37,0.54-2.875,0.811-4.515,0.811h-8.19V0.781z M34.62,17.611c0.94,0,1.8-0.15,2.58-0.451
			c0.78-0.299,1.445-0.729,1.995-1.289c0.55-0.561,0.979-1.221,1.29-1.98c0.31-0.76,0.465-1.609,0.465-2.55v-0.06
			c0-0.92-0.155-1.771-0.465-2.551c-0.311-0.779-0.74-1.449-1.29-2.01c-0.55-0.56-1.215-0.994-1.995-1.305
			c-0.78-0.311-1.64-0.465-2.58-0.465h-3.57v12.66H34.62z"/>
		<path fill="#010101" d="M89.85,22.08c-1.6,0-3.17-0.274-4.71-0.824c-1.541-0.55-2.94-1.395-4.2-2.535l2.73-3.27
			c0.96,0.779,1.945,1.4,2.955,1.859c1.01,0.461,2.115,0.69,3.315,0.69c0.96,0,1.705-0.175,2.235-0.525
			c0.529-0.35,0.795-0.835,0.795-1.454v-0.061c0-0.301-0.056-0.564-0.166-0.795c-0.111-0.23-0.321-0.445-0.632-0.645
			c-0.311-0.2-0.742-0.4-1.293-0.601c-0.552-0.2-1.269-0.409-2.15-0.63c-1.063-0.26-2.026-0.551-2.888-0.87
			s-1.594-0.715-2.196-1.185c-0.602-0.471-1.067-1.055-1.398-1.756c-0.331-0.699-0.497-1.569-0.497-2.609V6.811
			c0-0.96,0.179-1.824,0.536-2.595c0.358-0.77,0.859-1.435,1.505-1.995c0.646-0.56,1.417-0.99,2.314-1.29
			c0.896-0.3,1.885-0.45,2.965-0.45c1.54,0,2.955,0.23,4.245,0.69s2.475,1.12,3.555,1.979l-2.4,3.48
			c-0.94-0.641-1.86-1.145-2.76-1.516c-0.9-0.369-1.8-0.555-2.7-0.555c-0.9,0-1.575,0.176-2.025,0.525
			c-0.45,0.35-0.675,0.785-0.675,1.305v0.061c0,0.34,0.065,0.635,0.195,0.885s0.366,0.475,0.707,0.675
			c0.341,0.2,0.807,0.39,1.399,0.569c0.591,0.181,1.338,0.391,2.241,0.631c1.063,0.28,2.01,0.596,2.843,0.945
			c0.832,0.35,1.534,0.77,2.105,1.26c0.571,0.49,1.003,1.064,1.293,1.725s0.437,1.451,0.437,2.37v0.06
			c0,1.041-0.189,1.965-0.566,2.775c-0.378,0.811-0.904,1.49-1.58,2.04c-0.676,0.55-1.482,0.97-2.419,1.261
			C92.028,21.936,90.99,22.08,89.85,22.08z"/>
		<path fill="#010101" d="M101.549,0.781h8.58c1.26,0,2.385,0.175,3.375,0.524c0.99,0.351,1.83,0.845,2.52,1.485
			s1.22,1.405,1.59,2.295c0.37,0.891,0.555,1.875,0.555,2.955v0.06c0,1.22-0.22,2.29-0.66,3.21s-1.045,1.69-1.815,2.311
			c-0.77,0.619-1.67,1.085-2.7,1.395c-1.03,0.311-2.135,0.465-3.315,0.465h-3.51v6.301h-4.62V0.781z M109.829,11.371
			c1.16,0,2.06-0.305,2.7-0.916c0.64-0.609,0.96-1.364,0.96-2.264V8.131c0-1.039-0.335-1.83-1.005-2.37
			c-0.67-0.54-1.585-0.81-2.745-0.81h-3.57v6.42H109.829z"/>
		<path fill="#010101" d="M128.789,0.631h4.26l9,21.15h-4.83l-1.92-4.711h-8.879l-1.92,4.711h-4.71L128.789,0.631z M133.649,12.99
			l-2.79-6.81l-2.79,6.81H133.649z"/>
		<path fill="#010101" d="M155.129,22.141c-1.54,0-2.97-0.28-4.29-0.84c-1.319-0.56-2.46-1.324-3.42-2.295
			c-0.96-0.97-1.71-2.115-2.25-3.436c-0.54-1.319-0.81-2.729-0.81-4.229v-0.06c0-1.5,0.27-2.905,0.81-4.215
			c0.54-1.311,1.29-2.461,2.25-3.451c0.96-0.989,2.11-1.77,3.45-2.34s2.82-0.854,4.439-0.854c0.98,0,1.875,0.08,2.686,0.239
			c0.811,0.161,1.545,0.381,2.205,0.66c0.66,0.281,1.27,0.621,1.83,1.021c0.559,0.4,1.08,0.84,1.561,1.319l-2.941,3.391
			c-0.82-0.74-1.654-1.32-2.504-1.74c-0.851-0.42-1.806-0.63-2.865-0.63c-0.881,0-1.695,0.171-2.445,0.511s-1.395,0.81-1.936,1.409
			c-0.539,0.601-0.959,1.296-1.26,2.085c-0.3,0.791-0.449,1.635-0.449,2.535v0.061c0,0.899,0.149,1.75,0.449,2.549
			c0.301,0.801,0.715,1.5,1.246,2.101c0.529,0.601,1.17,1.075,1.92,1.425c0.75,0.351,1.574,0.525,2.475,0.525
			c1.199,0,2.215-0.22,3.045-0.66c0.83-0.439,1.654-1.039,2.475-1.8l2.939,2.97c-0.539,0.58-1.1,1.1-1.68,1.561
			c-0.58,0.46-1.215,0.854-1.904,1.185c-0.69,0.33-1.445,0.581-2.266,0.75C157.068,22.056,156.148,22.141,155.129,22.141z"/>
		<path fill="#010101" d="M167.64,0.781h4.619v21h-4.619V0.781z"/>
		<path fill="#010101" d="M177.509,0.781h4.261l9.84,12.93V0.781h4.56v21h-3.93l-10.17-13.351v13.351h-4.561V0.781z"/>
		<path fill="#010101" d="M211.318,22.141c-1.64,0-3.135-0.27-4.485-0.811c-1.35-0.539-2.51-1.289-3.479-2.25
			c-0.971-0.959-1.725-2.1-2.265-3.42c-0.54-1.319-0.811-2.76-0.811-4.319v-0.06c0-1.5,0.274-2.905,0.825-4.215
			c0.55-1.311,1.314-2.461,2.295-3.451c0.979-0.989,2.14-1.77,3.48-2.34c1.339-0.57,2.81-0.854,4.409-0.854
			c0.94,0,1.795,0.065,2.565,0.194c0.77,0.131,1.485,0.315,2.145,0.556c0.66,0.239,1.28,0.54,1.86,0.899
			c0.58,0.36,1.14,0.771,1.68,1.23l-2.909,3.51c-0.4-0.34-0.801-0.64-1.2-0.9c-0.4-0.26-0.815-0.479-1.245-0.659
			c-0.431-0.181-0.896-0.319-1.396-0.421c-0.5-0.1-1.05-0.149-1.649-0.149c-0.84,0-1.625,0.176-2.355,0.526s-1.37,0.822-1.92,1.414
			c-0.55,0.591-0.979,1.282-1.29,2.074c-0.311,0.791-0.465,1.639-0.465,2.541v0.06c0,0.962,0.154,1.849,0.465,2.661
			c0.311,0.812,0.75,1.519,1.32,2.119c0.57,0.602,1.24,1.068,2.01,1.398c0.77,0.331,1.625,0.496,2.565,0.496
			c1.72,0,3.169-0.423,4.35-1.27v-3.021h-4.649V9.691h9.119v9.119c-1.08,0.92-2.365,1.705-3.854,2.355
			C214.943,21.815,213.238,22.141,211.318,22.141z"/>
		<path fill="#010101" d="M222.149,23.101h18.119v3.479h-18.119V23.101z"/>
	</g>
	<g>
		<path fill="#303030" d="M48.647,5.326l7.742-2.671c1.55-0.535,3.06-0.775,4.527-0.721c1.468,0.054,2.823,0.364,4.066,0.93
			s2.326,1.36,3.25,2.385c0.925,1.024,1.628,2.236,2.111,3.636l0.02,0.057c0.483,1.399,0.678,2.792,0.584,4.178
			c-0.093,1.386-0.454,2.685-1.083,3.896c-0.629,1.212-1.503,2.296-2.622,3.253c-1.119,0.957-2.454,1.703-4.004,2.238l-7.742,2.671
			L48.647,5.326z M61.879,18.564c0.889-0.306,1.653-0.729,2.292-1.267c0.639-0.538,1.127-1.161,1.465-1.87
			c0.337-0.708,0.528-1.473,0.574-2.292c0.045-0.819-0.085-1.674-0.392-2.562l-0.02-0.057c-0.3-0.869-0.724-1.623-1.271-2.259
			c-0.547-0.637-1.172-1.129-1.875-1.479c-0.703-0.35-1.473-0.544-2.312-0.583c-0.838-0.038-1.702,0.096-2.59,0.402l-3.375,1.164
			l4.129,11.968L61.879,18.564z"/>
	</g>
</g>
</svg>
