<?xml version="1.0" encoding="utf-8"?>
<!-- Generator: Adobe Illustrator 15.0.0, SVG Export Plug-In . SVG Version: 6.00 Build 0)  -->
<!DOCTYPE svg PUBLIC "-//W3C//DTD SVG 1.1//EN" "http://www.w3.org/Graphics/SVG/1.1/DTD/svg11.dtd">
<svg version="1.1" id="Layer_1" xmlns="http://www.w3.org/2000/svg" xmlns:xlink="http://www.w3.org/1999/xlink" x="0px" y="0px"
	 width="185.555px" height="20px" viewBox="27.024 3 185.555 20" enable-background="new 27.024 3 185.555 20" xml:space="preserve"
	>
<g>
	<g>
		<path fill="#010101" d="M40.962,19.277c-1.176,0-2.259-0.209-3.246-0.623c-0.989-0.412-1.842-0.971-2.561-1.674
			c-0.72-0.705-1.277-1.537-1.677-2.486c-0.4-0.951-0.602-1.972-0.602-3.062v-0.043c0-1.09,0.204-2.111,0.612-3.062
			c0.407-0.953,0.969-1.789,1.689-2.507c0.718-0.72,1.576-1.286,2.57-1.7c0.996-0.413,2.081-0.62,3.257-0.62
			c1.177,0,2.26,0.207,3.247,0.62c0.989,0.414,1.842,0.974,2.56,1.679c0.72,0.705,1.28,1.532,1.679,2.483
			c0.399,0.953,0.6,1.974,0.6,3.062v0.046c0,1.088-0.203,2.107-0.609,3.062c-0.408,0.951-0.971,1.787-1.689,2.504
			c-0.72,0.719-1.576,1.287-2.571,1.699C43.225,19.068,42.138,19.277,40.962,19.277z M41.005,16.182
			c0.668,0,1.287-0.125,1.854-0.371c0.566-0.244,1.048-0.59,1.447-1.021c0.399-0.438,0.712-0.942,0.937-1.516
			c0.225-0.575,0.338-1.188,0.338-1.842v-0.043c0-0.655-0.113-1.271-0.338-1.854c-0.225-0.58-0.545-1.089-0.958-1.524
			c-0.416-0.436-0.906-0.78-1.472-1.036c-0.567-0.254-1.183-0.381-1.852-0.381c-0.682,0-1.303,0.124-1.862,0.371
			c-0.56,0.247-1.039,0.588-1.438,1.022c-0.399,0.438-0.712,0.943-0.937,1.516c-0.226,0.575-0.339,1.188-0.339,1.841v0.046
			c0,0.651,0.113,1.271,0.339,1.851c0.225,0.581,0.544,1.088,0.958,1.527c0.415,0.434,0.9,0.781,1.46,1.033
			S40.323,16.182,41.005,16.182z"/>
		<path fill="#010101" d="M52.075,3.763h5.949c1.191,0,2.285,0.191,3.278,0.577c0.995,0.383,1.853,0.918,2.571,1.602
			c0.721,0.681,1.276,1.485,1.668,2.406c0.39,0.924,0.587,1.92,0.587,2.996v0.045c0,1.074-0.197,2.076-0.587,3.008
			c-0.393,0.932-0.948,1.732-1.668,2.416c-0.718,0.686-1.576,1.223-2.571,1.615c-0.994,0.389-2.087,0.588-3.278,0.588h-5.949V3.763z
			 M58.024,15.984c0.681,0,1.307-0.107,1.874-0.324c0.567-0.221,1.05-0.533,1.449-0.939c0.4-0.406,0.71-0.885,0.937-1.438
			c0.224-0.551,0.336-1.169,0.336-1.852v-0.043c0-0.668-0.112-1.288-0.336-1.854c-0.227-0.566-0.537-1.052-0.937-1.46
			c-0.399-0.405-0.882-0.721-1.449-0.947c-0.567-0.228-1.192-0.339-1.874-0.339H55.43v9.195H58.024L58.024,15.984z"/>
		<path fill="#010101" d="M98.138,19.23c-1.163,0-2.303-0.197-3.42-0.6c-1.121-0.396-2.135-1.012-3.052-1.838l1.984-2.375
			c0.697,0.564,1.412,1.018,2.145,1.35c0.733,0.336,1.538,0.502,2.409,0.502c0.698,0,1.237-0.127,1.623-0.385
			c0.383-0.252,0.578-0.604,0.578-1.055v-0.043c0-0.219-0.042-0.408-0.121-0.578c-0.083-0.166-0.233-0.323-0.46-0.469
			c-0.227-0.145-0.539-0.29-0.94-0.437c-0.399-0.145-0.92-0.298-1.56-0.457c-0.772-0.188-1.473-0.399-2.098-0.631
			c-0.627-0.231-1.158-0.52-1.595-0.862c-0.438-0.343-0.776-0.766-1.017-1.274c-0.24-0.507-0.361-1.14-0.361-1.896V8.143
			c0-0.698,0.13-1.326,0.39-1.886c0.26-0.561,0.625-1.043,1.092-1.449c0.471-0.406,1.029-0.719,1.681-0.937
			c0.651-0.218,1.37-0.328,2.154-0.328c1.118,0,2.147,0.167,3.084,0.501s1.797,0.815,2.581,1.438l-1.743,2.529
			c-0.682-0.466-1.35-0.832-2.005-1.102c-0.652-0.269-1.307-0.403-1.959-0.403c-0.655,0-1.145,0.127-1.473,0.382
			c-0.327,0.254-0.489,0.569-0.489,0.948V7.88c0,0.245,0.047,0.46,0.142,0.644c0.094,0.18,0.265,0.344,0.512,0.489
			c0.25,0.145,0.586,0.282,1.017,0.412c0.43,0.132,0.971,0.285,1.627,0.459c0.772,0.204,1.46,0.433,2.065,0.688
			c0.605,0.253,1.115,0.56,1.528,0.913c0.415,0.357,0.729,0.774,0.94,1.254c0.21,0.479,0.318,1.055,0.318,1.721v0.045
			c0,0.754-0.139,1.426-0.412,2.012c-0.275,0.594-0.656,1.086-1.147,1.484c-0.492,0.4-1.076,0.705-1.758,0.916
			S98.967,19.23,98.138,19.23z"/>
		<path fill="#010101" d="M106.635,3.763h6.231c0.916,0,1.732,0.126,2.452,0.381c0.718,0.253,1.33,0.613,1.831,1.077
			s0.885,1.021,1.153,1.668c0.269,0.646,0.404,1.361,0.404,2.146v0.044c0,0.885-0.16,1.663-0.481,2.331
			c-0.318,0.668-0.759,1.227-1.317,1.679c-0.559,0.449-1.214,0.789-1.96,1.014c-0.749,0.225-1.551,0.336-2.409,0.336h-2.549v4.578
			h-3.354V3.763L106.635,3.763z M112.65,11.454c0.842,0,1.495-0.222,1.959-0.667c0.465-0.441,0.698-0.99,0.698-1.643V9.099
			c0-0.752-0.244-1.327-0.729-1.72c-0.488-0.393-1.151-0.589-1.994-0.589h-2.594v4.664H112.65z"/>
		<path fill="#010101" d="M126.419,3.653h3.093l6.539,15.362h-3.509l-1.396-3.424H124.7l-1.396,3.424h-3.42L126.419,3.653z
			 M129.95,12.63l-2.027-4.947l-2.028,4.947H129.95z"/>
		<path fill="#010101" d="M145.551,19.277c-1.12,0-2.158-0.203-3.115-0.609c-0.956-0.408-1.789-0.965-2.483-1.67
			c-0.699-0.705-1.241-1.537-1.635-2.494c-0.394-0.959-0.586-1.981-0.586-3.072v-0.043c0-1.09,0.192-2.111,0.586-3.062
			c0.394-0.954,0.936-1.789,1.635-2.507c0.694-0.72,1.53-1.286,2.506-1.7c0.971-0.413,2.046-0.62,3.224-0.62
			c0.713,0,1.363,0.06,1.951,0.173c0.587,0.119,1.12,0.277,1.603,0.481c0.479,0.204,0.921,0.45,1.328,0.741
			c0.405,0.289,0.786,0.61,1.134,0.956l-2.137,2.464c-0.596-0.537-1.199-0.959-1.819-1.264c-0.619-0.305-1.31-0.458-2.082-0.458
			c-0.637,0-1.229,0.125-1.773,0.371c-0.547,0.248-1.015,0.589-1.405,1.023c-0.393,0.438-0.699,0.943-0.917,1.516
			c-0.216,0.574-0.325,1.188-0.325,1.84v0.046c0,0.651,0.109,1.271,0.325,1.851c0.218,0.581,0.52,1.088,0.904,1.527
			c0.385,0.434,0.849,0.781,1.396,1.033c0.547,0.254,1.142,0.381,1.796,0.381c0.871,0,1.609-0.16,2.214-0.48
			c0.602-0.316,1.199-0.752,1.797-1.305l2.135,2.156c-0.392,0.424-0.8,0.799-1.219,1.133c-0.423,0.334-0.886,0.621-1.387,0.861
			c-0.501,0.238-1.046,0.42-1.644,0.547C146.959,19.215,146.291,19.277,145.551,19.277z"/>
		<path fill="#010101" d="M154.637,3.763h3.355v15.253h-3.355V3.763z"/>
		<path fill="#010101" d="M161.807,3.763h3.093l7.148,9.391V3.763h3.312v15.253h-2.855l-7.387-9.698v9.698h-3.311V3.763z"/>
		<path fill="#010101" d="M186.361,19.277c-1.188,0-2.276-0.199-3.257-0.59s-1.824-0.938-2.528-1.633
			c-0.705-0.699-1.25-1.525-1.643-2.486c-0.394-0.958-0.589-2.004-0.589-3.137v-0.043c0-1.09,0.198-2.111,0.597-3.062
			c0.401-0.954,0.956-1.789,1.668-2.507c0.71-0.72,1.557-1.286,2.526-1.7c0.975-0.413,2.04-0.62,3.206-0.62
			c0.681,0,1.301,0.048,1.858,0.142c0.562,0.095,1.08,0.229,1.559,0.402c0.481,0.175,0.931,0.394,1.353,0.654
			c0.423,0.263,0.829,0.56,1.222,0.894l-2.112,2.55c-0.293-0.249-0.583-0.466-0.871-0.655c-0.295-0.188-0.594-0.347-0.908-0.478
			c-0.312-0.132-0.65-0.231-1.012-0.306c-0.363-0.072-0.765-0.109-1.197-0.109c-0.613,0-1.182,0.129-1.71,0.382
			c-0.533,0.256-0.998,0.598-1.395,1.028c-0.403,0.428-0.714,0.93-0.94,1.505c-0.223,0.574-0.334,1.191-0.334,1.846v0.045
			c0,0.697,0.111,1.343,0.334,1.932c0.227,0.59,0.547,1.106,0.962,1.538c0.411,0.441,0.898,0.775,1.458,1.016
			c0.561,0.242,1.18,0.361,1.865,0.361c1.246,0,2.301-0.305,3.156-0.92V13.13h-3.377v-2.897h6.623v6.623
			c-0.78,0.668-1.715,1.238-2.799,1.711C188.996,19.039,187.755,19.277,186.361,19.277z"/>
		<path fill="#010101" d="M194.229,19.973h13.159V22.5h-13.159V19.973z"/>
	</g>
	<g>
		<path fill="#303030" d="M68.212,7.063l5.623-1.94c1.124-0.389,2.222-0.562,3.287-0.523c1.066,0.038,2.05,0.264,2.954,0.676
			c0.902,0.409,1.69,0.986,2.359,1.731c0.673,0.744,1.184,1.624,1.534,2.64l0.015,0.043c0.352,1.015,0.492,2.026,0.424,3.035
			c-0.068,1.005-0.331,1.949-0.786,2.826c-0.458,0.883-1.093,1.67-1.905,2.365c-0.813,0.697-1.783,1.236-2.91,1.625l-5.622,1.941
			L68.212,7.063z M77.823,16.68c0.645-0.223,1.199-0.533,1.663-0.924c0.464-0.391,0.819-0.842,1.066-1.355
			c0.243-0.516,0.382-1.071,0.417-1.665c0.031-0.595-0.064-1.216-0.287-1.861l-0.013-0.04c-0.219-0.632-0.525-1.18-0.924-1.643
			c-0.397-0.463-0.851-0.819-1.362-1.075c-0.511-0.252-1.069-0.394-1.68-0.422c-0.607-0.027-1.235,0.068-1.88,0.291L72.371,8.83
			l3,8.691L77.823,16.68z"/>
	</g>
</g>
</svg>
