<?xml version="1.0" encoding="utf-8"?>
<!-- Generator: Adobe Illustrator 15.0.0, SVG Export Plug-In . SVG Version: 6.00 Build 0)  -->
<!DOCTYPE svg PUBLIC "-//W3C//DTD SVG 1.1//EN" "http://www.w3.org/Graphics/SVG/1.1/DTD/svg11.dtd">
<svg version="1.1" id="Layer_1" xmlns="http://www.w3.org/2000/svg" xmlns:xlink="http://www.w3.org/1999/xlink" x="0px" y="0px"
	 width="160px" height="160px" viewBox="0 0 64 64" enable-background="new 0 0 64 64" xml:space="preserve">
<path d="M44.496,2.642l-1.993,3.83c8.358,4.348,13.549,12.897,13.549,22.31c0,5.473-1.765,10.54-4.747,14.671
	c-0.035-0.021-0.068-0.048-0.094-0.082c-2.863-0.301-5.279-1.051-7.857-1.643c-0.5,0.043-1,0.164-1.467,0
	c-0.016,0.104,0.014,0.248-0.088,0.261c-1.24-0.343-2.715,0.071-3.367-0.863c0.06-0.892-0.59-1.627-0.258-2.244
	c0.332-0.614,1.393-0.289,2.33-0.172c0.328,0.188,0.133,0.901,0.605,0.949c0.022-0.369-0.264-0.429-0.174-0.863
	c0.51-0.004,1.664,0.109,1.985-0.346c-0.319-0.14-0.821-0.099-0.862-0.519c0.297-0.22,0.989-0.024,1.209-0.426
	c-0.564,0.21-0.664-0.081-1.383,0.167c-0.102-0.735,1.272-0.762,1.055-0.862c-0.381-0.174-0.763-0.478-0.967-0.692
	c-0.334-0.353-0.074-0.853,0.258-0.688c0.334,0.161,2.113,1.153,3.713,0.776c-0.523,0.035-2.668-0.676-3.885-1.813
	c-0.266-0.258-0.935-1.25-0.691-1.984c0.598,0.15,0.554,0.943,1.383,0.861c-0.829-0.594-1.861-1.593-1.296-2.502
	c0.565-0.91,1.761-0.75,2.591-0.432c-0.035-0.307-0.506-0.372-0.174-0.519c0.333-0.146,1.471-0.293,1.555-0.431
	c0.086-0.139-0.686-0.33-0.086-0.604c0.6-0.273-1.127-0.048-2.072-0.518c-0.947-0.47-1.018-1.274-1.037-1.899
	c-0.018-0.626,1.148-0.883,1.123-1.122c-0.022-0.24-0.664,0.339-0.949,0.085c0.13-0.39,1.523-0.429,1.812-0.518
	c0.26-0.193,0.006-0.399,0.174-0.604c0.365-0.152,0.961-0.075,1.209-0.345c-0.227-0.158-0.738,0.266-0.951,0.086
	c-0.082-0.161,0.259-0.289,0-0.345c-0.353,0.565-1.823-0.184-2.07-0.173c-0.246,0.011-1.385-0.652-1.295-0.949
	c0.087-0.298-0.754,0.19-0.863,0.172c-0.111-0.018-0.518-0.517-0.52-0.777c0-0.261,1.56-0.172,1.383-0.345
	c-0.178-0.173-1.917-0.15-2.245-0.863c-0.329-0.714-0.345,0.176-0.624,0.319c-0.281,0.142-1.157-1.172-1.104-1.613
	c0.056-0.443,1.322-0.218,1.295-0.346s-1.729-0.843-2.071-1.035c-0.343-0.193,0.631-0.641,1.123-0.778
	c0.489-0.136-0.31-0.08-0.433-0.173c-0.123-0.092,0.217-0.72,0.172-0.777c-0.045-0.056-0.279,0.721-0.604,0.69
	c-0.324-0.029-0.74-0.824-0.691-1.122s0.763-0.096,1.037-0.173c0.274-0.078-0.861-0.069-0.863-0.259
	c-0.004-0.189,0.615-0.319,0.431-0.345c-0.187-0.025-0.431,0.202-0.69,0.259c-0.408-0.263,0.112-0.863-0.173-1.036
	c-0.413,1.023,0.103,1.867,0.521,2.676c-0.949,0.314-1.795-0.141-1.988-0.863c0.146-0.43,0.967-0.186,1.211-0.518
	c-0.682-0.314-1.705,0.287-2.199,0.167c-0.496-0.12-2.342-0.78-3.241-1.375c-0.896-0.596-0.73,1.014-1.294,0.69
	c-0.565-0.324-0.232-0.439-0.433-0.95c-0.2-0.51-2.107,0.11-2.158,1.037c-0.037,0.669,0.538,0.879,0.691,1.554
	c-0.413,0.008-0.355,0.955-1.038,0.95c-0.257-0.002-0.109-0.408-0.258-0.518c-0.618,0.169-0.374-0.129-0.519-0.432
	c-0.144,0.773-0.597,0.334-1.554,0.258c-0.957-0.075-1.575,2.234-1.295,3.109c0.283,0.874-2.034,1.914-3.279,1.899
	c0.092,0.655,1.74,0.208,1.64,0.604c-0.101,0.396-0.979,1.613-2.677,1.727c0.072,0.243,1.702,0.811,1.428,0.756
	c-0.675-0.135-1.267,0.176-1.515-0.065c0.118,0.911,1.54,0.448,2.072,0.518c-0.745,0.406-1.604,0.699-2.503,0.95
	c-0.139,0.34,0.373,0.03,0.344,0.259c-0.326,0.159-0.112,0.826-0.689,0.517c0.315,0.564,1.394,0.575,1.9,0.692
	c-0.088,1.034-1.173,1.073-1.728,1.639c-0.034-0.148,0.128-0.22,0-0.259c-0.092,0.168-0.292,0.226-0.431,0.346
	c0.908,0.103,0.911-0.699,1.812-0.604c-0.042,0.36,0.253,0.381,0.172,0.777c-0.283,0.321-1.021,0.187-1.381,0.433
	c0.388-0.012,0.616,0.189,0.604,0.344c0.112-0.192,0.513-0.15,0.173-0.344c0.351-0.011,0.548-0.124,0.863-0.345
	c0.091,0.322-0.181,0.278-0.259,0.431c0.254,0.988-1.105,1.52-1.037,2.331c0.568-0.021,0.954,0.141,1.296,0.346
	c-0.033,0.227-0.276,0.241-0.173,0.604c0.292-0.031,0.565-0.522,0.864-0.261c-0.023,0.523-0.718,0.377-0.864,0.776
	c0.652,0.366,0.646-0.603,1.209-0.604c-0.169,0.915-1.323,1.141-1.382,1.899c1.085-0.141,2.187-1.193,3.281-0.519
	c-0.026,0.79-0.611,1.448-1.123,1.468c-0.207,0.887-1.303,0.885-1.469,1.812c0.901-0.479,1.766,0.213,1.987,0.951
	c0.376,0.123,0.533-0.414,0.69,0c-0.287,0.432-0.912,0.524-0.949,1.207c0.573-0.143,0.83-0.605,1.467-0.259
	c0.389-0.53,1.02-0.823,1.555-1.209c-0.005,0.829-0.418,1.252-0.95,1.554c0.043,0.303,0.396,0.293,0.259,0.777
	c0.508,0.003,0.949-0.829,1.466-0.259c0.15,0.978-1.033,1.471-0.517,2.246c0.2-0.175,0.087-0.662,0.432-0.692
	c-0.075,0.442-0.191,0.846-0.432,1.124c-0.481,0.035-0.733,0.304-1.295,0.257c-1.019-0.933-2.296,0.16-3.195,0.604
	c-1.354,0.095-2.459,1.161-4.403,0.948c-0.282,0.094-0.226,0.524-0.518,0.604c-0.577,0.229-1.027,0.582-1.465,0.947
	c-2.997-2.857-5.309-6.479-6.623-10.646l-4.116,1.297c3.881,12.31,15.169,20.582,28.089,20.582
	c16.236,0,29.448-13.209,29.448-29.445C60.369,17.753,54.287,7.737,44.496,2.642z M41.627,35.083c-0.01,0.308,0.062,0.694-0.26,0.69
	C41.387,35.475,41.338,35.109,41.627,35.083z M41.021,37.241c0.305,0.175,0.326,0.647,0.604,1.034
	c-0.338-0.064-0.985,0.184-0.949-0.258C40.797,37.764,41.177,37.768,41.021,37.241z M22.806,36.378
	c-0.023,0.554-0.47,0.681-0.691,1.035C21.973,37.037,22.37,36.46,22.806,36.378z M21.425,38.275
	c-0.291,0.004-0.458-0.117-0.604-0.258c0.206-0.5,0.8-0.81,1.036-0.175C21.854,38.129,21.492,38.057,21.425,38.275z M21.77,38.536
	c0.104-0.413,0.685-0.353,0.95-0.604c0.077,0.037,0.153,0.074,0.172,0.174C22.918,38.704,22.081,39.014,21.77,38.536z
	 M22.374,21.959c0.056-0.289,0.312-0.379,0.518-0.519C22.983,21.539,22.804,22.096,22.374,21.959z M22.979,20.06
	c-0.123-0.122,0.019-0.419,0.086-0.604c0.153,0.077,0.219,0.242,0.518,0.173C23.453,19.843,23.287,20.022,22.979,20.06z
	 M37.139,18.679c0.103,0.164,0.041,0.437,0,0.519c-0.043,0.08-0.309,0.248-0.434,0.085c-0.035-0.181,0.115-0.24,0.088-0.345
	c-0.029-0.104-0.688-0.384-0.605-0.518C36.27,18.286,37.034,18.514,37.139,18.679z M34.287,16.606
	c0.154-0.161,0.255-0.052,0.324,0.047c0.068,0.101,0.109,0.212,0.109,0.298C34.426,16.988,34.229,16.926,34.287,16.606z
	 M31.958,15.916c0.185-0.187,0.481-0.044,0.604,0.086C32.559,16.262,31.857,16.271,31.958,15.916z M26.951,14.362
	c0.138-0.025,0.147,0.082,0.258,0.086c-0.015,0.561-0.58,0.572-0.605,1.122C26.345,15.134,26.856,14.73,26.951,14.362z
	 M26.604,15.743c0.402-0.334,0.453,0.678,1.037,0.518c-0.067,0.077-0.093,0.196-0.086,0.346
	C27.056,16.501,27.027,15.926,26.604,15.743z M25.741,17.988c0.146,0.409-0.497,0.475-0.431,0.086
	C25.411,18.001,25.541,17.959,25.741,17.988z M26.432,42.162c0.102,0.607-0.589,1.48-1.295,1.294
	C25.26,42.716,26.161,42.753,26.432,42.162z"   />
</svg>
